<svg xmlns="http://www.w3.org/2000/svg" viewBox="0 0 1536 1024" width="1536" height="1024"><defs><linearGradient id="sky" x1="0" y1="0" x2="0" y2="1"><stop offset="0" stop-color="#07283a"/><stop offset="1" stop-color="#0c5a5a"/></linearGradient><filter id="blur" x="-50%" y="-50%" width="200%" height="200%"><feGaussianBlur stdDeviation="40"/></filter><filter id="soft" x="-50%" y="-50%" width="200%" height="200%"><feGaussianBlur stdDeviation="12"/></filter></defs><rect width="1536" height="1024" fill="url(#sky)"/><path d="M0 180 Q 384 120 768 180 T 1536 180" stroke="#7fe6e0" stroke-width="2" fill="none" opacity=".15"/><path d="M0 210 Q 384 150 768 210 T 1536 210" stroke="#7fe6e0" stroke-width="2" fill="none" opacity=".15"/><path d="M0 240 Q 384 180 768 240 T 1536 240" stroke="#7fe6e0" stroke-width="2" fill="none" opacity=".15"/><path d="M0 270 Q 384 210 768 270 T 1536 270" stroke="#7fe6e0" stroke-width="2" fill="none" opacity=".15"/><circle cx="400" cy="150" r="300" fill="#9fe8ff" opacity="0.14" filter="url(#blur)"/><path d="M0 860 Q 400 800 768 850 T 1536 830 L1536 1024 L0 1024Z" fill="#c9a86a"/><rect x="320" y="520" width="300" height="340" fill="#4a3a5c"/><rect x="330" y="440" width="70" height="120" fill="#5a4a6c"/><polygon points="330,440 365,380 400,440" fill="#ff9f7a"/><rect x="430" y="440" width="70" height="120" fill="#5a4a6c"/><polygon points="430,440 465,380 500,440" fill="#ff9f7a"/><rect x="530" y="440" width="70" height="120" fill="#5a4a6c"/><polygon points="530,440 565,380 600,440" fill="#ff9f7a"/><rect x="350" y="600" width="30" height="50" rx="15" fill="#ffc07a" opacity=".8"/><rect x="410" y="680" width="30" height="50" rx="15" fill="#ffc07a" opacity=".8"/><rect x="470" y="600" width="30" height="50" rx="15" fill="#ffc07a" opacity=".8"/><rect x="530" y="680" width="30" height="50" rx="15" fill="#ffc07a" opacity=".8"/><path d="M900 700 L1200 700 L1160 760 L940 760 Z" fill="#6a3d2a"/><line x1="1050" y1="700" x2="1050" y2="540" stroke="#3a2416" stroke-width="10"/><polygon points="1060,545 1060,690 1180,690" fill="#f5f0e0"/><path d="M1300 840 a 60 60 0 0 1 120 0 Z" fill="#ff9f7a"/><rect x="120" y="760" width="160" height="100" rx="8" fill="#5a3a20"/><path d="M120 760 a 80 60 0 0 1 160 0 Z" fill="#7a4a24"/><rect x="190" y="790" width="20" height="24" fill="#f2c66b"/><circle cx="1360" cy="770" r="18" fill="none" stroke="#bff6ff" stroke-width="3" opacity="0.90"/><circle cx="1377" cy="685" r="27" fill="none" stroke="#bff6ff" stroke-width="3" opacity="0.80"/><circle cx="1378" cy="600" r="36" fill="none" stroke="#bff6ff" stroke-width="3" opacity="0.70"/><circle cx="1363" cy="515" r="45" fill="none" stroke="#bff6ff" stroke-width="3" opacity="0.60"/><circle cx="1345" cy="430" r="54" fill="none" stroke="#bff6ff" stroke-width="3" opacity="0.50"/><circle cx="1341" cy="345" r="63" fill="none" stroke="#bff6ff" stroke-width="3" opacity="0.40"/><circle cx="1354" cy="260" r="72" fill="none" stroke="#bff6ff" stroke-width="3" opacity="0.30"/><circle cx="868" cy="241" r="3.2" fill="none" stroke="#bff6ff" stroke-width="1.5" opacity="0.30"/><circle cx="596" cy="516" r="2.9" fill="none" stroke="#bff6ff" stroke-width="1.5" opacity="0.38"/><circle cx="102" cy="677" r="3.8" fill="none" stroke="#bff6ff" stroke-width="1.5" opacity="0.43"/><circle cx="22" cy="778" r="5.9" fill="none" stroke="#bff6ff" stroke-width="1.5" opacity="0.24"/><circle cx="1012" cy="410" r="3.7" fill="none" stroke="#bff6ff" stroke-width="1.5" opacity="0.36"/><circle cx="132" cy="197" r="2.6" fill="none" stroke="#bff6ff" stroke-width="1.5" opacity="0.28"/><circle cx="531" cy="118" r="3.7" fill="none" stroke="#bff6ff" stroke-width="1.5" opacity="0.23"/><circle cx="49" cy="615" r="5.9" fill="none" stroke="#bff6ff" stroke-width="1.5" opacity="0.38"/><circle cx="876" cy="149" r="3.4" fill="none" stroke="#bff6ff" stroke-width="1.5" opacity="0.26"/><circle cx="1335" cy="323" r="2.7" fill="none" stroke="#bff6ff" stroke-width="1.5" opacity="0.23"/><circle cx="865" cy="640" r="4.8" fill="none" stroke="#bff6ff" stroke-width="1.5" opacity="0.38"/><circle cx="486" cy="521" r="2.0" fill="none" stroke="#bff6ff" stroke-width="1.5" opacity="0.41"/><circle cx="1133" cy="243" r="2.1" fill="none" stroke="#bff6ff" stroke-width="1.5" opacity="0.54"/><circle cx="286" cy="814" r="5.7" fill="none" stroke="#bff6ff" stroke-width="1.5" opacity="0.49"/><circle cx="425" cy="185" r="6.7" fill="none" stroke="#bff6ff" stroke-width="1.5" opacity="0.53"/><circle cx="587" cy="863" r="4.4" fill="none" stroke="#bff6ff" stroke-width="1.5" opacity="0.39"/><circle cx="876" cy="363" r="4.3" fill="none" stroke="#bff6ff" stroke-width="1.5" opacity="0.25"/><circle cx="1482" cy="450" r="5.2" fill="none" stroke="#bff6ff" stroke-width="1.5" opacity="0.41"/><circle cx="1183" cy="355" r="6.4" fill="none" stroke="#bff6ff" stroke-width="1.5" opacity="0.57"/><circle cx="1407" cy="820" r="5.4" fill="none" stroke="#bff6ff" stroke-width="1.5" opacity="0.23"/><circle cx="69" cy="416" r="3.6" fill="none" stroke="#bff6ff" stroke-width="1.5" opacity="0.57"/><circle cx="1164" cy="442" r="3.3" fill="none" stroke="#bff6ff" stroke-width="1.5" opacity="0.24"/><circle cx="145" cy="690" r="3.3" fill="none" stroke="#bff6ff" stroke-width="1.5" opacity="0.55"/><circle cx="1028" cy="463" r="5.0" fill="none" stroke="#bff6ff" stroke-width="1.5" opacity="0.31"/><circle cx="635" cy="124" r="3.2" fill="none" stroke="#bff6ff" stroke-width="1.5" opacity="0.29"/><circle cx="759" cy="180" r="2.4" fill="none" stroke="#bff6ff" stroke-width="1.5" opacity="0.21"/><circle cx="399" cy="367" r="3.7" fill="none" stroke="#bff6ff" stroke-width="1.5" opacity="0.58"/><circle cx="540" cy="199" r="4.2" fill="none" stroke="#bff6ff" stroke-width="1.5" opacity="0.28"/><circle cx="1114" cy="396" r="4.3" fill="none" stroke="#bff6ff" stroke-width="1.5" opacity="0.55"/><circle cx="1243" cy="852" r="5.6" fill="none" stroke="#bff6ff" stroke-width="1.5" opacity="0.35"/><circle cx="1024" cy="894" r="6.3" fill="none" stroke="#bff6ff" stroke-width="1.5" opacity="0.30"/><circle cx="476" cy="158" r="2.7" fill="none" stroke="#bff6ff" stroke-width="1.5" opacity="0.28"/><circle cx="884" cy="888" r="6.5" fill="none" stroke="#bff6ff" stroke-width="1.5" opacity="0.39"/><circle cx="1304" cy="287" r="3.6" fill="none" stroke="#bff6ff" stroke-width="1.5" opacity="0.30"/><circle cx="89" cy="886" r="2.8" fill="none" stroke="#bff6ff" stroke-width="1.5" opacity="0.41"/><circle cx="1177" cy="629" r="2.5" fill="none" stroke="#bff6ff" stroke-width="1.5" opacity="0.52"/><circle cx="1068" cy="447" r="2.5" fill="none" stroke="#bff6ff" stroke-width="1.5" opacity="0.42"/><circle cx="385" cy="852" r="4.8" fill="none" stroke="#bff6ff" stroke-width="1.5" opacity="0.36"/><circle cx="792" cy="324" r="6.1" fill="none" stroke="#bff6ff" stroke-width="1.5" opacity="0.29"/><circle cx="1267" cy="260" r="4.4" fill="none" stroke="#bff6ff" stroke-width="1.5" opacity="0.46"/><path d="M700 860 q 20 -120 0 -240 q 30 100 20 240Z" fill="#1f7a5c" opacity=".8"/><path d="M760 860 q 20 -120 0 -240 q 30 100 20 240Z" fill="#1f7a5c" opacity=".8"/><path d="M1260 860 q 20 -120 0 -240 q 30 100 20 240Z" fill="#1f7a5c" opacity=".8"/><path d="M80 860 q 20 -120 0 -240 q 30 100 20 240Z" fill="#1f7a5c" opacity=".8"/></svg>